Coordinates
version=1
nRows=18
nColumns=22
inDegrees=yes

Units are S.I. units (second, meters, Newtons, ...)
If the header above contains a line with 'inDegrees', this indicates whether rotational values are in degrees (yes) or radians (no).

endheader
time	pelvis_tilt	pelvis_list	pelvis_rotation	pelvis_tx	pelvis_ty	pelvis_tz	hip_flexion_r	hip_adduction_r	hip_rotation_r	knee_angle_r	ankle_angle_r	subtalar_angle_r	hip_flexion_l	hip_adduction_l	hip_rotation_l	knee_angle_l	ankle_angle_l	subtalar_angle_l	lumbar_extension	lumbar_bending	lumbar_rotation
      0.01000000	      2.52555706	     -0.98686881	      3.96453044	      0.14487667	      1.08930273	      1.18393632	     -2.83678463	      2.34537597	     -3.75868905	    -10.16193075	     11.82565193	     -1.46239292	     -4.43273607	     -0.74716104	      4.17002883	     -9.60184291	     11.89554278	     -4.42964129	     -2.55190394	     -1.46028729	     -5.76869260
      0.02000000	      2.51127844	     -1.00011056	      3.92662727	      0.14508284	      1.08925846	      1.18390063	     -2.81361665	      2.35161785	     -3.74076825	    -10.19088262	     11.82457453	     -1.46188972	     -4.43855693	     -0.75448912	      4.15819746	     -9.59318902	     11.91380412	     -4.43394471	     -2.56057932	     -1.45299881	     -5.80139834
      0.03000000	      2.44212445	     -1.02708835	      3.85011203	      0.14527667	      1.08912489	      1.18394702	     -2.71644739	      2.36925360	     -3.66781946	    -10.24272876	     11.84524016	     -1.45861971	     -4.37174459	     -0.77345213	      4.06674119	     -9.61325139	     11.96320054	     -4.43254588	     -2.51472266	     -1.44373637	     -5.77956363
      0.04000000	      2.40333154	     -1.04690991	      3.78820738	      0.14550483	      1.08903133	      1.18395648	     -2.65215502	      2.37947439	     -3.64462180	    -10.30008238	     11.88338203	     -1.46106740	     -4.35068489	     -0.78647368	      4.01935675	     -9.61250074	     11.99304684	     -4.42055106	     -2.50720971	     -1.43681983	     -5.78519326
      0.05000000	      2.34361451	     -1.06410293	      3.70967021	      0.14575131	      1.08891024	      1.18400648	     -2.56883277	      2.38648368	     -3.59511511	    -10.35153165	     11.89836977	     -1.46068338	     -4.30677506	     -0.79589052	      3.94036651	     -9.61759838	     12.03068139	     -4.39880829	     -2.47481118	     -1.43712095	     -5.77895412
      0.06000000	      2.28186706	     -1.08371228	      3.63572606	      0.14600302	      1.08878494	      1.18406006	     -2.48432953	      2.39658368	     -3.55847315	    -10.40151325	     11.92309687	     -1.46224546	     -4.26544967	     -0.80903881	      3.87157049	     -9.61334534	     12.06454010	     -4.37368588	     -2.44297534	     -1.43440229	     -5.77262214
      0.07000000	      2.21630288	     -1.09856270	      3.56117782	      0.14625725	      1.08865330	      1.18411171	     -2.39919753	      2.40142644	     -3.51588146	    -10.44573170	     11.94342563	     -1.46462641	     -4.22150484	     -0.81641321	      3.79555053	     -9.60644506	     12.10152169	     -4.34753706	     -2.40934651	     -1.43309734	     -5.76427574
      0.08000000	      2.15583671	     -1.11144015	      3.49269474	      0.14654874	      1.08852819	      1.18417995	     -2.32429259	      2.40710964	     -3.47485067	    -10.48753291	     11.97098277	     -1.46944311	     -4.18870065	     -0.82416048	      3.73085884	     -9.59270164	     12.13196531	     -4.32337347	     -2.37609226	     -1.43556881	     -5.76056931
      0.09000000	      2.10225073	     -1.11790850	      3.43171993	      0.14687099	      1.08840939	      1.18424640	     -2.26191779	      2.40783394	     -3.43198681	    -10.52602959	     12.00071848	     -1.47578978	     -4.16699325	     -0.82634074	      3.67246096	     -9.57454669	     12.16130882	     -4.30362612	     -2.34717533	     -1.44328743	     -5.76360804
      0.10000000	      2.07671263	     -1.12088919	      3.39967830	      0.14724194	      1.08833272	      1.18427978	     -2.24276147	      2.40859551	     -3.41673471	    -10.54778540	     12.00846609	     -1.47748978	     -4.18128200	     -0.82850238	      3.65018878	     -9.54600187	     12.17593064	     -4.30112205	     -2.34487751	     -1.44948734	     -5.80610561
      0.11000000	      2.02808995	     -1.11656360	      3.34207248	      0.14761674	      1.08820782	      1.18437536	     -2.18710414	      2.40154774	     -3.35074311	    -10.59600961	     12.08195828	     -1.48768627	     -4.17161162	     -0.82144236	      3.59678376	     -9.52071694	     12.21320133	     -4.28171820	     -2.31509441	     -1.46815630	     -5.79319310
      0.12000000	      2.00382788	     -1.11446447	      3.32311542	      0.14802459	      1.08812949	      1.18442339	     -2.17072823	      2.40014949	     -3.33085308	    -10.62265510	     12.08804991	     -1.49016046	     -4.18590187	     -0.82090560	      3.57491174	     -9.49386440	     12.22683398	     -4.27750091	     -2.30990137	     -1.47763654	     -5.83802233
      0.13000000	      1.94463244	     -1.09476678	      3.28034778	      0.14842412	      1.08799180	      1.18452100	     -2.10139396	      2.37775200	     -3.27653395	    -10.68062075	     12.15401605	     -1.51310245	     -4.15714419	     -0.79836489	      3.52704403	     -9.48283097	     12.25565695	     -4.23000730	     -2.26445252	     -1.51012379	     -5.83766266
      0.14000000	      1.92520237	     -1.09327274	      3.27423816	      0.14886258	      1.08791615	      1.18458530	     -2.09127722	      2.38060765	     -3.25475366	    -10.70929667	     12.17475365	     -1.51617688	     -4.17466363	     -0.80090068	      3.52140497	     -9.45990559	     12.27401634	     -4.22698505	     -2.26152267	     -1.51644094	     -5.88149403
      0.15000000	      1.90600796	     -1.08683974	      3.26740314	      0.14931057	      1.08783530	      1.18465691	     -2.07766369	      2.37844827	     -3.23048152	    -10.74725781	     12.21785429	     -1.52217474	     -4.19009932	     -0.79755649	      3.52162348	     -9.44383103	     12.29988488	     -4.22119907	     -2.25824867	     -1.52470960	     -5.92023031
      0.16000000	      1.87820328	     -1.07018867	      3.26575643	      0.14975262	      1.08773221	      1.18473903	     -2.04961438	      2.36523588	     -3.21989831	    -10.79633702	     12.30243211	     -1.53830120	     -4.18631022	     -0.78366000	      3.52873875	     -9.44685265	     12.33675590	     -4.20217980	     -2.24851611	     -1.54932199	     -5.93677691
      0.17000000	      1.84833599	     -1.05923744	      3.26968175	      0.15020033	      1.08763100	      1.18481714	     -2.01606744	      2.35820698	     -3.21438913	    -10.85107592	     12.35718884	     -1.55341230	     -4.17719428	     -0.77628925	      3.53242849	     -9.45332948	     12.36341445	     -4.18442649	     -2.23669551	     -1.56346254	     -5.96602496
      0.18000000	      1.82001961	     -1.05239894	      3.27679323	      0.15065652	      1.08752906	      1.18490368	     -1.98499542	      2.35657937	     -3.21311058	    -10.90460731	     12.40904712	     -1.56528016	     -4.16548640	     -0.77408597	      3.53920994	     -9.46747307	     12.39263924	     -4.17395721	     -2.22725273	     -1.57305102	     -5.99027242
